<svg width="100" height="100" viewBox="0 0 100 100" fill="none" xmlns="http://www.w3.org/2000/svg">
  <!-- Corazón verde VitalGo -->
  <path d="M50 90.5C50 90.5 85 64 85 41.5C85 32.7174 81.6295 24.3152 75.5663 18.252C69.5032 12.1888 61.1011 8.81836 52.3185 8.81836C46.9847 8.81836 41.7618 10.3401 37.2677 13.2081C32.7736 16.0761 29.1915 20.17 26.9358 24.9971C25.1547 22.5908 22.9104 20.5262 20.3215 18.9251C17.7326 17.324 14.8466 16.2174 11.8185 15.6681C8.79038 15.1188 5.67676 15.1376 2.65706 15.7236C-0.362639 16.3095 -3.23528 17.4516 -5.81494 19.0838C-8.3946 20.716 -10.6346 22.8086 -12.4157 25.2507C-14.1968 27.6928 -15.4874 30.4411 -16.2215 33.3516C-16.9556 36.2621 -17.1201 39.2806 -16.7065 42.2525C-16.293 45.2244 -15.3081 48.094 -13.8015 50.707C-11.5 54.5 -8 58 -3.5 60.5L50 90.5Z" fill="#01EF7F"/>
  <path d="M14.3185 8.81836C23.1011 8.81836 31.5032 12.1888 37.5663 18.252C43.6295 24.3152 47 32.7174 47 41.5C47 32.7174 50.3705 24.3152 56.4337 18.252C62.4968 12.1888 70.8989 8.81836 79.6815 8.81836C88.4641 8.81836 96.8662 12.1888 102.929 18.252C108.993 24.3152 112.363 32.7174 112.363 41.5C112.363 64 77.3635 90.5 77.3635 90.5L50 90.5L22.6365 90.5C22.6365 90.5 -12.3635 64 -12.3635 41.5C-12.3635 32.7174 -8.99304 24.3152 -2.92984 18.252C3.13337 12.1888 11.5355 8.81836 20.3181 8.81836H14.3185Z" fill="#01EF7F"/>
  <path d="M50 15C40.717 15 31.815 18.6875 25.2513 25.2513C18.6875 31.815 15 40.717 15 50C15 59.283 18.6875 68.185 25.2513 74.7487C31.815 81.3125 40.717 85 50 85C59.283 85 68.185 81.3125 74.7487 74.7487C81.3125 68.185 85 59.283 85 50C85 40.717 81.3125 31.815 74.7487 25.2513C68.185 18.6875 59.283 15 50 15ZM15 41.5C15 32.7174 18.3705 24.3152 24.4337 18.252C30.4968 12.1888 38.8989 8.81836 47.6815 8.81836C56.4641 8.81836 64.8662 12.1888 70.9294 18.252C76.9926 24.3152 80.363 32.7174 80.363 41.5C80.363 64 50 90.5 50 90.5C50 90.5 15 64 15 41.5Z" fill="#01EF7F"/>
  
  <!-- Cruz médica blanca -->
  <g>
    <rect x="42" y="30" width="16" height="40" rx="2" fill="white"/>
    <rect x="30" y="42" width="40" height="16" rx="2" fill="white"/>
  </g>
</svg>